# MagicaVoxel @ Ephtracy

# group
o 

# material
mtllib plane_corner2.mtl
usemtl palette

# normals
vn -1 0 0
vn 1 0 0
vn 0 0 1
vn 0 0 -1
vn 0 -1 0
vn 0 1 0

# texcoords
vt 0.0449219 0.5
vt 0.0488281 0.5
vt 0.0527344 0.5

# verts
v -1 0 -0.3
v -1 0 -1
v -1 0.1 -0.3
v -1 0.1 -1
v -0.9 0 -0.1
v -0.9 0 -0.3
v -0.9 0 -1
v -0.9 0 -1.2
v -0.9 0 -1.7
v -0.9 0 -2
v -0.9 0.1 -0.1
v -0.9 0.1 -0.3
v -0.9 0.1 -1
v -0.9 0.1 -1.2
v -0.9 0.1 -1.7
v -0.9 0.1 -2
v -0.8 0 0.0999999
v -0.8 0 -0.1
v -0.8 0 -1.2
v -0.8 0 -1.4
v -0.8 0 -1.5
v -0.8 0 -1.7
v -0.8 0.1 0.0999999
v -0.8 0.1 -0.1
v -0.8 0.1 -1.2
v -0.8 0.1 -1.4
v -0.8 0.1 -1.5
v -0.8 0.1 -1.7
v -0.7 0 0.2
v -0.7 0 0.0999999
v -0.7 0 -1.4
v -0.7 0 -1.5
v -0.7 0.1 0.2
v -0.7 0.1 0.0999999
v -0.7 0.1 -1.4
v -0.7 0.1 -1.5
v -0.6 0 1
v -0.6 0 0.2
v -0.6 0.1 1
v -0.6 0.1 0.2
v -0.5 0 1.2
v -0.5 0 1
v -0.5 0.1 1.2
v -0.5 0.1 1
v -0.4 0 1.4
v -0.4 0 1.2
v -0.4 0.1 1.4
v -0.4 0.1 1.2
v -0.4 0.1 -1.4
v -0.4 0.1 -2
v -0.4 0.2 -1.4
v -0.4 0.2 -2
v -0.3 0 1.5
v -0.3 0 1.4
v -0.3 0.1 1.5
v -0.3 0.1 1.4
v -0.3 0.1 -1.2
v -0.3 0.1 -1.4
v -0.3 0.2 -1.2
v -0.3 0.2 -1.4
v -0.2 0 1.6
v -0.2 0 1.5
v -0.2 0.1 1.6
v -0.2 0.1 1.5
v -0.2 0.1 -1
v -0.2 0.1 -1.2
v -0.2 0.2 -1
v -0.2 0.2 -1.2
v -0.0999999 0 2
v -0.0999999 0 1.6
v -0.0999999 0.1 2
v -0.0999999 0.1 1.6
v -0.0999999 0.1 -0.9
v -0.0999999 0.1 -1
v -0.0999999 0.2 -0.9
v -0.0999999 0.2 -1
v 1.19209e-07 0.1 1
v 1.19209e-07 0.1 0.3
v 1.19209e-07 0.1 -0.8
v 1.19209e-07 0.1 -0.9
v 1.19209e-07 0.2 1
v 1.19209e-07 0.2 0.3
v 1.19209e-07 0.2 -0.8
v 1.19209e-07 0.2 -0.9
v 0.1 0.1 1.3
v 0.1 0.1 1
v 0.1 0.1 0.3
v 0.1 0.1 -2.38419e-07
v 0.1 0.1 -0.7
v 0.1 0.1 -0.8
v 0.1 0.2 1.3
v 0.1 0.2 1
v 0.1 0.2 0.3
v 0.1 0.2 -2.38419e-07
v 0.1 0.2 -0.7
v 0.1 0.2 -0.8
v 0.2 0.1 1.4
v 0.2 0.1 1.3
v 0.2 0.1 -2.38419e-07
v 0.2 0.1 -0.1
v 0.2 0.2 1.4
v 0.2 0.2 1.3
v 0.2 0.2 -2.38419e-07
v 0.2 0.2 -0.1
v 0.3 0.1 1.6
v 0.3 0.1 1.4
v 0.3 0.1 -0.1
v 0.3 0.1 -0.3
v 0.3 0.1 -0.6
v 0.3 0.1 -0.7
v 0.3 0.2 1.6
v 0.3 0.2 1.4
v 0.3 0.2 -0.1
v 0.3 0.2 -0.3
v 0.3 0.2 -0.6
v 0.3 0.2 -0.7
v 0.4 0.1 1.7
v 0.4 0.1 1.6
v 0.4 0.1 -0.3
v 0.4 0.1 -0.4
v 0.4 0.2 1.7
v 0.4 0.2 1.6
v 0.4 0.2 -0.3
v 0.4 0.2 -0.4
v 0.5 0.1 -0.5
v 0.5 0.1 -0.6
v 0.5 0.2 -0.5
v 0.5 0.2 -0.6
v 0.6 0.1 1.8
v 0.6 0.1 1.7
v 0.6 0.1 -0.4
v 0.6 0.1 -0.5
v 0.6 0.2 1.8
v 0.6 0.2 1.7
v 0.6 0.2 -0.4
v 0.6 0.2 -0.5
v 0.7 0.1 1.9
v 0.7 0.1 1.8
v 0.7 0.2 1.9
v 0.7 0.2 1.8
v 0.8 0.1 2
v 0.8 0.1 1.9
v 0.8 0.2 2
v 0.8 0.2 1.9
v 2 0 2
v 2 0 -2
v 2 0.2 2
v 2 0.2 -2
v -0.0999999 0 2
v -0.0999999 0.1 2
v 0.8 0.1 2
v 0.8 0.2 2
v 2 0 2
v 2 0.2 2
v 0.7 0.1 1.9
v 0.7 0.2 1.9
v 0.8 0.1 1.9
v 0.8 0.2 1.9
v 0.6 0.1 1.8
v 0.6 0.2 1.8
v 0.7 0.1 1.8
v 0.7 0.2 1.8
v 0.4 0.1 1.7
v 0.4 0.2 1.7
v 0.6 0.1 1.7
v 0.6 0.2 1.7
v -0.2 0 1.6
v -0.2 0.1 1.6
v -0.0999999 0 1.6
v -0.0999999 0.1 1.6
v 0.3 0.1 1.6
v 0.3 0.2 1.6
v 0.4 0.1 1.6
v 0.4 0.2 1.6
v -0.3 0 1.5
v -0.3 0.1 1.5
v -0.2 0 1.5
v -0.2 0.1 1.5
v -0.4 0 1.4
v -0.4 0.1 1.4
v -0.3 0 1.4
v -0.3 0.1 1.4
v 0.2 0.1 1.4
v 0.2 0.2 1.4
v 0.3 0.1 1.4
v 0.3 0.2 1.4
v 0.1 0.1 1.3
v 0.1 0.2 1.3
v 0.2 0.1 1.3
v 0.2 0.2 1.3
v -0.5 0 1.2
v -0.5 0.1 1.2
v -0.4 0 1.2
v -0.4 0.1 1.2
v -0.6 0 1
v -0.6 0.1 1
v -0.5 0 1
v -0.5 0.1 1
v 1.19209e-07 0.1 1
v 1.19209e-07 0.2 1
v 0.1 0.1 1
v 0.1 0.2 1
v -0.7 0 0.2
v -0.7 0.1 0.2
v -0.6 0 0.2
v -0.6 0.1 0.2
v -0.8 0 0.0999999
v -0.8 0.1 0.0999999
v -0.7 0 0.0999999
v -0.7 0.1 0.0999999
v -0.9 0 -0.1
v -0.9 0.1 -0.1
v -0.8 0 -0.1
v -0.8 0.1 -0.1
v -1 0 -0.3
v -1 0.1 -0.3
v -0.9 0 -0.3
v -0.9 0.1 -0.3
v 0.5 0.1 -0.5
v 0.5 0.2 -0.5
v 0.6 0.1 -0.5
v 0.6 0.2 -0.5
v 0.3 0.1 -0.6
v 0.3 0.2 -0.6
v 0.5 0.1 -0.6
v 0.5 0.2 -0.6
v 0.1 0.1 -0.7
v 0.1 0.2 -0.7
v 0.3 0.1 -0.7
v 0.3 0.2 -0.7
v 1.19209e-07 0.1 -0.8
v 1.19209e-07 0.2 -0.8
v 0.1 0.1 -0.8
v 0.1 0.2 -0.8
v -0.0999999 0.1 -0.9
v -0.0999999 0.2 -0.9
v 1.19209e-07 0.1 -0.9
v 1.19209e-07 0.2 -0.9
v -0.2 0.1 -1
v -0.2 0.2 -1
v -0.0999999 0.1 -1
v -0.0999999 0.2 -1
v -0.3 0.1 -1.2
v -0.3 0.2 -1.2
v -0.2 0.1 -1.2
v -0.2 0.2 -1.2
v -0.4 0.1 -1.4
v -0.4 0.2 -1.4
v -0.3 0.1 -1.4
v -0.3 0.2 -1.4
v -0.8 0 -1.5
v -0.8 0.1 -1.5
v -0.7 0 -1.5
v -0.7 0.1 -1.5
v -0.9 0 -1.7
v -0.9 0.1 -1.7
v -0.8 0 -1.7
v -0.8 0.1 -1.7
v 1.19209e-07 0.1 0.3
v 1.19209e-07 0.2 0.3
v 0.1 0.1 0.3
v 0.1 0.2 0.3
v 0.1 0.1 -2.38419e-07
v 0.1 0.2 -2.38419e-07
v 0.2 0.1 -2.38419e-07
v 0.2 0.2 -2.38419e-07
v 0.2 0.1 -0.1
v 0.2 0.2 -0.1
v 0.3 0.1 -0.1
v 0.3 0.2 -0.1
v 0.3 0.1 -0.3
v 0.3 0.2 -0.3
v 0.4 0.1 -0.3
v 0.4 0.2 -0.3
v 0.4 0.1 -0.4
v 0.4 0.2 -0.4
v 0.6 0.1 -0.4
v 0.6 0.2 -0.4
v -1 0 -1
v -1 0.1 -1
v -0.9 0 -1
v -0.9 0.1 -1
v -0.9 0 -1.2
v -0.9 0.1 -1.2
v -0.8 0 -1.2
v -0.8 0.1 -1.2
v -0.8 0 -1.4
v -0.8 0.1 -1.4
v -0.7 0 -1.4
v -0.7 0.1 -1.4
v -0.9 0 -2
v -0.9 0.1 -2
v -0.4 0.1 -2
v -0.4 0.2 -2
v 2 0 -2
v 2 0.2 -2
v -0.0999999 0 2
v 2 0 2
v 0.4 0 1.9
v 0.5 0 1.9
v 0.4 0 1.8
v 0.5 0 1.8
v -0.2 0 1.6
v -0.0999999 0 1.6
v -0.3 0 1.5
v -0.2 0 1.5
v -0.4 0 1.4
v -0.3 0 1.4
v -0.5 0 1.2
v -0.4 0 1.2
v -0.6 0 1
v -0.5 0 1
v -0.7 0 0.2
v -0.6 0 0.2
v -0.8 0 0.0999999
v -0.7 0 0.0999999
v -0.9 0 -0.1
v -0.8 0 -0.1
v -1 0 -0.3
v -0.9 0 -0.3
v 1.7 0 -0.3
v 1.8 0 -0.3
v 1.7 0 -0.4
v 1.8 0 -0.4
v -0.7 0 -0.7
v -0.6 0 -0.7
v -0.7 0 -0.8
v -0.6 0 -0.8
v -1 0 -1
v -0.9 0 -1
v -0.9 0 -1.2
v -0.8 0 -1.2
v -0.8 0 -1.4
v -0.7 0 -1.4
v -0.8 0 -1.5
v -0.7 0 -1.5
v -0.9 0 -1.7
v -0.8 0 -1.7
v -0.9 0 -2
v 2 0 -2
v -0.0999999 0.1 2
v 0.8 0.1 2
v 0.4 0.1 1.9
v 0.5 0.1 1.9
v 0.7 0.1 1.9
v 0.8 0.1 1.9
v 0.4 0.1 1.8
v 0.5 0.1 1.8
v 0.6 0.1 1.8
v 0.7 0.1 1.8
v 0.4 0.1 1.7
v 0.6 0.1 1.7
v -0.2 0.1 1.6
v -0.0999999 0.1 1.6
v 0.3 0.1 1.6
v 0.4 0.1 1.6
v -0.3 0.1 1.5
v -0.2 0.1 1.5
v -0.4 0.1 1.4
v -0.3 0.1 1.4
v 0.2 0.1 1.4
v 0.3 0.1 1.4
v 0.1 0.1 1.3
v 0.2 0.1 1.3
v -0.5 0.1 1.2
v -0.4 0.1 1.2
v -0.6 0.1 1
v -0.5 0.1 1
v 1.19209e-07 0.1 1
v 0.1 0.1 1
v 1.19209e-07 0.1 0.3
v 0.1 0.1 0.3
v -0.7 0.1 0.2
v -0.6 0.1 0.2
v -0.8 0.1 0.0999999
v -0.7 0.1 0.0999999
v 0.1 0.1 -2.38419e-07
v 0.2 0.1 -2.38419e-07
v -0.9 0.1 -0.1
v -0.8 0.1 -0.1
v 0.2 0.1 -0.1
v 0.3 0.1 -0.1
v -1 0.1 -0.3
v -0.9 0.1 -0.3
v 0.3 0.1 -0.3
v 0.4 0.1 -0.3
v 0.4 0.1 -0.4
v 0.6 0.1 -0.4
v 0.5 0.1 -0.5
v 0.6 0.1 -0.5
v 0.3 0.1 -0.6
v 0.5 0.1 -0.6
v -0.7 0.1 -0.7
v -0.6 0.1 -0.7
v 0.1 0.1 -0.7
v 0.3 0.1 -0.7
v -0.7 0.1 -0.8
v -0.6 0.1 -0.8
v 1.19209e-07 0.1 -0.8
v 0.1 0.1 -0.8
v -0.0999999 0.1 -0.9
v 1.19209e-07 0.1 -0.9
v -1 0.1 -1
v -0.9 0.1 -1
v -0.2 0.1 -1
v -0.0999999 0.1 -1
v -0.9 0.1 -1.2
v -0.8 0.1 -1.2
v -0.3 0.1 -1.2
v -0.2 0.1 -1.2
v -0.8 0.1 -1.4
v -0.7 0.1 -1.4
v -0.4 0.1 -1.4
v -0.3 0.1 -1.4
v -0.8 0.1 -1.5
v -0.7 0.1 -1.5
v -0.9 0.1 -1.7
v -0.8 0.1 -1.7
v -0.9 0.1 -2
v -0.4 0.1 -2
v 0.8 0.2 2
v 2 0.2 2
v 0.7 0.2 1.9
v 0.8 0.2 1.9
v 0.6 0.2 1.8
v 0.7 0.2 1.8
v 0.4 0.2 1.7
v 0.6 0.2 1.7
v 0.3 0.2 1.6
v 0.4 0.2 1.6
v 0.2 0.2 1.4
v 0.3 0.2 1.4
v 0.1 0.2 1.3
v 0.2 0.2 1.3
v 1.19209e-07 0.2 1
v 0.1 0.2 1
v 1.19209e-07 0.2 0.3
v 0.1 0.2 0.3
v 0.1 0.2 -2.38419e-07
v 0.2 0.2 -2.38419e-07
v 0.2 0.2 -0.1
v 0.3 0.2 -0.1
v 0.3 0.2 -0.3
v 0.4 0.2 -0.3
v 0.4 0.2 -0.4
v 0.6 0.2 -0.4
v 0.5 0.2 -0.5
v 0.6 0.2 -0.5
v 0.3 0.2 -0.6
v 0.5 0.2 -0.6
v 0.1 0.2 -0.7
v 0.3 0.2 -0.7
v 1.19209e-07 0.2 -0.8
v 0.1 0.2 -0.8
v -0.0999999 0.2 -0.9
v 1.19209e-07 0.2 -0.9
v -0.2 0.2 -1
v -0.0999999 0.2 -1
v -0.3 0.2 -1.2
v -0.2 0.2 -1.2
v -0.4 0.2 -1.4
v -0.3 0.2 -1.4
v 1.8 0.2 -1.4
v 1.9 0.2 -1.4
v 1.8 0.2 -1.5
v 1.9 0.2 -1.5
v -0.4 0.2 -2
v 2 0.2 -2

# faces
f 3/2/1 2/2/1 1/2/1
f 4/2/1 2/2/1 3/2/1
f 11/2/1 6/2/1 5/2/1
f 12/2/1 6/2/1 11/2/1
f 13/2/1 8/2/1 7/2/1
f 14/2/1 8/2/1 13/2/1
f 15/2/1 10/2/1 9/2/1
f 16/2/1 10/2/1 15/2/1
f 23/2/1 18/2/1 17/2/1
f 24/2/1 18/2/1 23/2/1
f 25/2/1 20/2/1 19/2/1
f 26/2/1 20/2/1 25/2/1
f 27/2/1 22/2/1 21/2/1
f 28/2/1 22/2/1 27/2/1
f 33/2/1 30/2/1 29/2/1
f 34/2/1 30/2/1 33/2/1
f 35/2/1 32/2/1 31/2/1
f 36/2/1 32/2/1 35/2/1
f 39/2/1 38/2/1 37/2/1
f 40/2/1 38/2/1 39/2/1
f 43/2/1 42/2/1 41/2/1
f 44/2/1 42/2/1 43/2/1
f 47/2/1 46/2/1 45/2/1
f 48/2/1 46/2/1 47/2/1
f 51/2/1 50/2/1 49/2/1
f 52/2/1 50/2/1 51/2/1
f 55/2/1 54/2/1 53/2/1
f 56/2/1 54/2/1 55/2/1
f 59/2/1 58/2/1 57/2/1
f 60/2/1 58/2/1 59/2/1
f 63/2/1 62/2/1 61/2/1
f 64/2/1 62/2/1 63/2/1
f 67/2/1 66/2/1 65/2/1
f 68/2/1 66/2/1 67/2/1
f 71/2/1 70/2/1 69/2/1
f 72/2/1 70/2/1 71/2/1
f 75/2/1 74/2/1 73/2/1
f 76/2/1 74/2/1 75/2/1
f 81/2/1 78/2/1 77/2/1
f 82/2/1 78/2/1 81/2/1
f 83/2/1 80/2/1 79/2/1
f 84/2/1 80/2/1 83/2/1
f 91/2/1 86/2/1 85/2/1
f 92/2/1 86/2/1 91/2/1
f 93/2/1 88/2/1 87/2/1
f 94/2/1 88/2/1 93/2/1
f 95/2/1 90/2/1 89/2/1
f 96/2/1 90/2/1 95/2/1
f 101/2/1 98/2/1 97/2/1
f 102/2/1 98/2/1 101/2/1
f 103/2/1 100/2/1 99/2/1
f 104/2/1 100/2/1 103/2/1
f 111/2/1 106/2/1 105/2/1
f 112/2/1 106/2/1 111/2/1
f 113/2/1 108/2/1 107/2/1
f 114/2/1 108/2/1 113/2/1
f 115/2/1 110/2/1 109/2/1
f 116/2/1 110/2/1 115/2/1
f 121/2/1 118/2/1 117/2/1
f 122/2/1 118/2/1 121/2/1
f 123/2/1 120/2/1 119/2/1
f 124/2/1 120/2/1 123/2/1
f 127/2/1 126/2/1 125/2/1
f 128/2/1 126/2/1 127/2/1
f 133/2/1 130/2/1 129/2/1
f 134/2/1 130/2/1 133/2/1
f 135/2/1 132/2/1 131/2/1
f 136/2/1 132/2/1 135/2/1
f 139/2/1 138/2/1 137/2/1
f 140/2/1 138/2/1 139/2/1
f 143/2/1 142/2/1 141/2/1
f 144/2/1 142/2/1 143/2/1
f 145/2/2 146/2/2 147/2/2
f 147/2/2 146/2/2 148/2/2
f 151/2/3 150/2/3 149/2/3
f 153/2/3 151/2/3 149/2/3
f 153/2/3 152/2/3 151/2/3
f 154/2/3 152/2/3 153/2/3
f 157/2/3 156/2/3 155/2/3
f 158/2/3 156/2/3 157/2/3
f 161/2/3 160/2/3 159/2/3
f 162/2/3 160/2/3 161/2/3
f 165/2/3 164/2/3 163/2/3
f 166/2/3 164/2/3 165/2/3
f 169/2/3 168/2/3 167/2/3
f 170/2/3 168/2/3 169/2/3
f 173/2/3 172/2/3 171/2/3
f 174/2/3 172/2/3 173/2/3
f 177/2/3 176/2/3 175/2/3
f 178/2/3 176/2/3 177/2/3
f 181/2/3 180/2/3 179/2/3
f 182/2/3 180/2/3 181/2/3
f 185/2/3 184/2/3 183/2/3
f 186/2/3 184/2/3 185/2/3
f 189/2/3 188/2/3 187/2/3
f 190/2/3 188/2/3 189/2/3
f 193/2/3 192/2/3 191/2/3
f 194/2/3 192/2/3 193/2/3
f 197/2/3 196/2/3 195/2/3
f 198/2/3 196/2/3 197/2/3
f 201/2/3 200/2/3 199/2/3
f 202/2/3 200/2/3 201/2/3
f 205/2/3 204/2/3 203/2/3
f 206/2/3 204/2/3 205/2/3
f 209/2/3 208/2/3 207/2/3
f 210/2/3 208/2/3 209/2/3
f 213/2/3 212/2/3 211/2/3
f 214/2/3 212/2/3 213/2/3
f 217/2/3 216/2/3 215/2/3
f 218/2/3 216/2/3 217/2/3
f 221/2/3 220/2/3 219/2/3
f 222/2/3 220/2/3 221/2/3
f 225/2/3 224/2/3 223/2/3
f 226/2/3 224/2/3 225/2/3
f 229/2/3 228/2/3 227/2/3
f 230/2/3 228/2/3 229/2/3
f 233/2/3 232/2/3 231/2/3
f 234/2/3 232/2/3 233/2/3
f 237/2/3 236/2/3 235/2/3
f 238/2/3 236/2/3 237/2/3
f 241/2/3 240/2/3 239/2/3
f 242/2/3 240/2/3 241/2/3
f 245/2/3 244/2/3 243/2/3
f 246/2/3 244/2/3 245/2/3
f 249/2/3 248/2/3 247/2/3
f 250/2/3 248/2/3 249/2/3
f 253/2/3 252/2/3 251/2/3
f 254/2/3 252/2/3 253/2/3
f 257/2/3 256/2/3 255/2/3
f 258/2/3 256/2/3 257/2/3
f 259/2/4 260/2/4 261/2/4
f 261/2/4 260/2/4 262/2/4
f 263/2/4 264/2/4 265/2/4
f 265/2/4 264/2/4 266/2/4
f 267/2/4 268/2/4 269/2/4
f 269/2/4 268/2/4 270/2/4
f 271/2/4 272/2/4 273/2/4
f 273/2/4 272/2/4 274/2/4
f 275/2/4 276/2/4 277/2/4
f 277/2/4 276/2/4 278/2/4
f 279/2/4 280/2/4 281/2/4
f 281/2/4 280/2/4 282/2/4
f 283/2/4 284/2/4 285/2/4
f 285/2/4 284/2/4 286/2/4
f 287/2/4 288/2/4 289/2/4
f 289/2/4 288/2/4 290/2/4
f 291/2/4 292/2/4 293/2/4
f 291/2/4 293/2/4 295/2/4
f 293/2/4 294/2/4 295/2/4
f 295/2/4 294/2/4 296/2/4
f 299/2/5 298/2/5 297/2/5
f 300/2/5 298/2/5 299/2/5
f 301/2/5 299/2/5 297/2/5
f 301/3/5 300/3/5 299/3/5
f 302/2/5 298/2/5 300/2/5
f 302/3/5 300/3/5 301/3/5
f 304/2/5 301/2/5 297/2/5
f 304/2/5 302/2/5 301/2/5
f 306/2/5 304/2/5 303/2/5
f 308/2/5 306/2/5 305/2/5
f 310/2/5 308/2/5 307/2/5
f 312/2/5 310/2/5 309/2/5
f 314/2/5 312/2/5 311/2/5
f 316/2/5 314/2/5 313/2/5
f 318/2/5 316/2/5 315/2/5
f 320/2/5 318/2/5 317/2/5
f 321/2/5 298/2/5 302/2/5
f 321/2/5 302/2/5 304/2/5
f 321/2/5 318/2/5 320/2/5
f 321/2/5 304/2/5 306/2/5
f 321/2/5 316/2/5 318/2/5
f 321/2/5 306/2/5 308/2/5
f 321/2/5 314/2/5 316/2/5
f 321/2/5 308/2/5 310/2/5
f 321/2/5 312/2/5 314/2/5
f 321/2/5 310/2/5 312/2/5
f 322/2/5 298/2/5 321/2/5
f 323/2/5 320/2/5 319/2/5
f 323/2/5 321/2/5 320/2/5
f 323/3/5 322/3/5 321/3/5
f 324/2/5 298/2/5 322/2/5
f 324/3/5 322/3/5 323/3/5
f 325/2/5 323/2/5 319/2/5
f 325/2/5 324/2/5 323/2/5
f 326/2/5 324/2/5 325/2/5
f 327/2/5 325/2/5 319/2/5
f 327/1/5 326/1/5 325/1/5
f 328/2/5 324/2/5 326/2/5
f 328/1/5 326/1/5 327/1/5
f 329/2/5 327/2/5 319/2/5
f 329/2/5 328/2/5 327/2/5
f 330/2/5 328/2/5 329/2/5
f 331/2/5 328/2/5 330/2/5
f 332/2/5 328/2/5 331/2/5
f 333/2/5 328/2/5 332/2/5
f 334/2/5 328/2/5 333/2/5
f 336/2/5 328/2/5 334/2/5
f 338/2/5 336/2/5 335/2/5
f 339/2/5 338/2/5 337/2/5
f 340/2/5 298/2/5 324/2/5
f 340/2/5 338/2/5 339/2/5
f 340/2/5 324/2/5 328/2/5
f 340/2/5 336/2/5 338/2/5
f 340/2/5 328/2/5 336/2/5
f 341/2/6 342/2/6 343/2/6
f 343/2/6 342/2/6 344/2/6
f 344/2/6 342/2/6 345/2/6
f 345/2/6 342/2/6 346/2/6
f 341/2/6 343/2/6 347/2/6
f 343/3/6 344/3/6 347/3/6
f 344/2/6 345/2/6 348/2/6
f 347/3/6 344/3/6 348/3/6
f 348/2/6 345/2/6 349/2/6
f 349/2/6 345/2/6 350/2/6
f 341/2/6 347/2/6 351/2/6
f 347/2/6 348/2/6 351/2/6
f 348/2/6 349/2/6 351/2/6
f 351/2/6 349/2/6 352/2/6
f 341/2/6 351/2/6 354/2/6
f 354/2/6 351/2/6 355/2/6
f 355/2/6 351/2/6 356/2/6
f 353/2/6 354/2/6 358/2/6
f 354/2/6 355/2/6 358/2/6
f 357/2/6 358/2/6 360/2/6
f 358/2/6 355/2/6 361/2/6
f 360/2/6 358/2/6 361/2/6
f 361/2/6 355/2/6 362/2/6
f 359/2/6 360/2/6 363/2/6
f 360/2/6 361/2/6 363/2/6
f 363/2/6 361/2/6 364/2/6
f 359/2/6 363/2/6 366/2/6
f 365/2/6 366/2/6 368/2/6
f 366/2/6 363/2/6 369/2/6
f 368/2/6 366/2/6 369/2/6
f 369/2/6 363/2/6 370/2/6
f 367/2/6 368/2/6 371/2/6
f 368/2/6 369/2/6 371/2/6
f 367/2/6 371/2/6 374/2/6
f 371/2/6 372/2/6 374/2/6
f 373/2/6 374/2/6 376/2/6
f 374/2/6 372/2/6 377/2/6
f 375/2/6 376/2/6 377/2/6
f 376/2/6 374/2/6 377/2/6
f 375/2/6 377/2/6 380/2/6
f 377/2/6 378/2/6 380/2/6
f 380/2/6 378/2/6 381/2/6
f 380/2/6 381/2/6 384/2/6
f 381/2/6 382/2/6 384/2/6
f 379/2/6 380/2/6 384/2/6
f 384/2/6 382/2/6 385/2/6
f 384/2/6 385/2/6 387/2/6
f 385/2/6 386/2/6 387/2/6
f 383/2/6 384/2/6 387/2/6
f 387/2/6 388/2/6 389/2/6
f 389/2/6 388/2/6 390/2/6
f 383/2/6 387/2/6 391/2/6
f 387/2/6 389/2/6 391/2/6
f 391/2/6 389/2/6 392/2/6
f 383/2/6 391/2/6 393/2/6
f 393/2/6 391/2/6 394/2/6
f 394/2/6 391/2/6 395/2/6
f 395/2/6 391/2/6 396/2/6
f 383/2/6 393/2/6 397/2/6
f 393/1/6 394/1/6 397/1/6
f 394/2/6 395/2/6 398/2/6
f 397/1/6 394/1/6 398/1/6
f 398/2/6 395/2/6 399/2/6
f 399/2/6 395/2/6 400/2/6
f 397/2/6 398/2/6 401/2/6
f 398/2/6 399/2/6 401/2/6
f 401/2/6 399/2/6 402/2/6
f 383/2/6 397/2/6 403/2/6
f 397/2/6 401/2/6 403/2/6
f 403/2/6 401/2/6 404/2/6
f 404/2/6 401/2/6 405/2/6
f 405/2/6 401/2/6 406/2/6
f 404/2/6 405/2/6 407/2/6
f 407/2/6 405/2/6 408/2/6
f 408/2/6 405/2/6 409/2/6
f 409/2/6 405/2/6 410/2/6
f 408/2/6 409/2/6 411/2/6
f 411/2/6 409/2/6 412/2/6
f 412/2/6 409/2/6 413/2/6
f 413/2/6 409/2/6 414/2/6
f 412/2/6 413/2/6 416/2/6
f 415/2/6 416/2/6 418/2/6
f 417/2/6 418/2/6 419/2/6
f 416/2/6 413/2/6 420/2/6
f 419/2/6 418/2/6 420/2/6
f 418/2/6 416/2/6 420/2/6
f 421/2/6 422/2/6 424/2/6
f 423/2/6 424/2/6 426/2/6
f 425/2/6 426/2/6 428/2/6
f 427/2/6 428/2/6 430/2/6
f 429/2/6 430/2/6 432/2/6
f 431/2/6 432/2/6 434/2/6
f 433/2/6 434/2/6 436/2/6
f 435/2/6 436/2/6 437/2/6
f 436/2/6 434/2/6 438/2/6
f 437/2/6 436/2/6 438/2/6
f 438/2/6 434/2/6 439/2/6
f 434/2/6 432/2/6 440/2/6
f 439/2/6 434/2/6 440/2/6
f 440/2/6 432/2/6 441/2/6
f 432/2/6 430/2/6 442/2/6
f 441/2/6 432/2/6 442/2/6
f 442/2/6 430/2/6 443/2/6
f 430/2/6 428/2/6 444/2/6
f 443/2/6 430/2/6 444/2/6
f 444/2/6 428/2/6 445/2/6
f 428/2/6 426/2/6 446/2/6
f 445/2/6 428/2/6 446/2/6
f 446/2/6 426/2/6 448/2/6
f 447/2/6 448/2/6 450/2/6
f 449/2/6 450/2/6 452/2/6
f 451/2/6 452/2/6 454/2/6
f 453/2/6 454/2/6 456/2/6
f 455/2/6 456/2/6 458/2/6
f 457/2/6 458/2/6 460/2/6
f 459/2/6 460/2/6 462/2/6
f 424/2/6 422/2/6 463/2/6
f 426/2/6 424/2/6 463/2/6
f 462/2/6 460/2/6 463/2/6
f 448/2/6 426/2/6 463/2/6
f 460/2/6 458/2/6 463/2/6
f 450/2/6 448/2/6 463/2/6
f 458/2/6 456/2/6 463/2/6
f 452/2/6 450/2/6 463/2/6
f 456/2/6 454/2/6 463/2/6
f 454/2/6 452/2/6 463/2/6
f 463/2/6 422/2/6 464/2/6
f 461/2/6 462/2/6 465/2/6
f 462/2/6 463/2/6 465/2/6
f 463/3/6 464/3/6 465/3/6
f 464/2/6 422/2/6 466/2/6
f 465/3/6 464/3/6 466/3/6
f 461/2/6 465/2/6 467/2/6
f 465/2/6 466/2/6 467/2/6
f 466/2/6 422/2/6 468/2/6
f 467/2/6 466/2/6 468/2/6
